<mxfile host="app.diagrams.net" modified="2024-01-16T06:52:09.448Z" agent="Mozilla/5.0 (Windows NT 10.0; Win64; x64) AppleWebKit/537.36 (KHTML, like Gecko) Chrome/120.0.0.0 Safari/537.36" etag="5jeBs4MIrxG7Tf3rshSo" version="22.1.18" type="github">
  <diagram name="第 1 页" id="23eDjn6sSCtbQLzArtbT">
    <mxGraphModel dx="1434" dy="738" grid="1" gridSize="10" guides="1" tooltips="1" connect="1" arrows="1" fold="1" page="1" pageScale="1" pageWidth="827" pageHeight="1169" math="0" shadow="0">
      <root>
        <mxCell id="0" />
        <mxCell id="1" parent="0" />
        <mxCell id="amsWNtKq7_Y3dCARKuHN-3" value="" style="edgeStyle=orthogonalEdgeStyle;rounded=0;orthogonalLoop=1;jettySize=auto;html=1;" edge="1" parent="1" source="amsWNtKq7_Y3dCARKuHN-1" target="amsWNtKq7_Y3dCARKuHN-2">
          <mxGeometry relative="1" as="geometry" />
        </mxCell>
        <mxCell id="amsWNtKq7_Y3dCARKuHN-1" value="同步" style="rounded=0;whiteSpace=wrap;html=1;" vertex="1" parent="1">
          <mxGeometry x="40" y="100" width="120" height="60" as="geometry" />
        </mxCell>
        <mxCell id="amsWNtKq7_Y3dCARKuHN-6" value="" style="edgeStyle=orthogonalEdgeStyle;rounded=0;orthogonalLoop=1;jettySize=auto;html=1;" edge="1" parent="1" source="amsWNtKq7_Y3dCARKuHN-2" target="amsWNtKq7_Y3dCARKuHN-5">
          <mxGeometry relative="1" as="geometry" />
        </mxCell>
        <mxCell id="amsWNtKq7_Y3dCARKuHN-2" value="列出云存储文件夹下所有文件列表" style="whiteSpace=wrap;html=1;rounded=0;" vertex="1" parent="1">
          <mxGeometry x="240" y="100" width="120" height="60" as="geometry" />
        </mxCell>
        <mxCell id="amsWNtKq7_Y3dCARKuHN-8" value="" style="edgeStyle=orthogonalEdgeStyle;rounded=0;orthogonalLoop=1;jettySize=auto;html=1;" edge="1" parent="1" source="amsWNtKq7_Y3dCARKuHN-5" target="amsWNtKq7_Y3dCARKuHN-7">
          <mxGeometry relative="1" as="geometry" />
        </mxCell>
        <mxCell id="amsWNtKq7_Y3dCARKuHN-5" value="读取文件信息" style="whiteSpace=wrap;html=1;rounded=0;" vertex="1" parent="1">
          <mxGeometry x="440" y="100" width="120" height="60" as="geometry" />
        </mxCell>
        <mxCell id="amsWNtKq7_Y3dCARKuHN-7" value="回调通知,返回文件列表信息和文件信息" style="whiteSpace=wrap;html=1;rounded=0;" vertex="1" parent="1">
          <mxGeometry x="640" y="100" width="120" height="60" as="geometry" />
        </mxCell>
        <mxCell id="amsWNtKq7_Y3dCARKuHN-43" value="" style="edgeStyle=orthogonalEdgeStyle;rounded=0;orthogonalLoop=1;jettySize=auto;html=1;" edge="1" parent="1" source="amsWNtKq7_Y3dCARKuHN-10" target="amsWNtKq7_Y3dCARKuHN-42">
          <mxGeometry relative="1" as="geometry" />
        </mxCell>
        <mxCell id="amsWNtKq7_Y3dCARKuHN-10" value="移动" style="rounded=0;whiteSpace=wrap;html=1;" vertex="1" parent="1">
          <mxGeometry x="40" y="220" width="120" height="60" as="geometry" />
        </mxCell>
        <mxCell id="amsWNtKq7_Y3dCARKuHN-21" value="" style="edgeStyle=orthogonalEdgeStyle;rounded=0;orthogonalLoop=1;jettySize=auto;html=1;" edge="1" parent="1" source="amsWNtKq7_Y3dCARKuHN-11" target="amsWNtKq7_Y3dCARKuHN-20">
          <mxGeometry relative="1" as="geometry" />
        </mxCell>
        <mxCell id="amsWNtKq7_Y3dCARKuHN-11" value="复制" style="rounded=0;whiteSpace=wrap;html=1;" vertex="1" parent="1">
          <mxGeometry x="40" y="310" width="120" height="60" as="geometry" />
        </mxCell>
        <mxCell id="amsWNtKq7_Y3dCARKuHN-35" style="edgeStyle=orthogonalEdgeStyle;rounded=0;orthogonalLoop=1;jettySize=auto;html=1;entryX=0;entryY=0.5;entryDx=0;entryDy=0;" edge="1" parent="1" source="amsWNtKq7_Y3dCARKuHN-12" target="amsWNtKq7_Y3dCARKuHN-34">
          <mxGeometry relative="1" as="geometry" />
        </mxCell>
        <mxCell id="amsWNtKq7_Y3dCARKuHN-12" value="删除" style="rounded=0;whiteSpace=wrap;html=1;" vertex="1" parent="1">
          <mxGeometry x="40" y="400" width="120" height="60" as="geometry" />
        </mxCell>
        <mxCell id="amsWNtKq7_Y3dCARKuHN-32" style="edgeStyle=orthogonalEdgeStyle;rounded=0;orthogonalLoop=1;jettySize=auto;html=1;exitX=1;exitY=0.5;exitDx=0;exitDy=0;" edge="1" parent="1" source="amsWNtKq7_Y3dCARKuHN-20" target="amsWNtKq7_Y3dCARKuHN-25">
          <mxGeometry relative="1" as="geometry" />
        </mxCell>
        <mxCell id="amsWNtKq7_Y3dCARKuHN-20" value="复制文件，记录日志" style="rounded=0;whiteSpace=wrap;html=1;" vertex="1" parent="1">
          <mxGeometry x="240" y="310" width="120" height="60" as="geometry" />
        </mxCell>
        <mxCell id="amsWNtKq7_Y3dCARKuHN-24" value="操作完成,回调通知" style="rounded=0;whiteSpace=wrap;html=1;" vertex="1" parent="1">
          <mxGeometry x="440" y="220" width="120" height="60" as="geometry" />
        </mxCell>
        <mxCell id="amsWNtKq7_Y3dCARKuHN-33" style="edgeStyle=orthogonalEdgeStyle;rounded=0;orthogonalLoop=1;jettySize=auto;html=1;exitX=1;exitY=0.5;exitDx=0;exitDy=0;" edge="1" parent="1" source="amsWNtKq7_Y3dCARKuHN-25" target="amsWNtKq7_Y3dCARKuHN-27">
          <mxGeometry relative="1" as="geometry" />
        </mxCell>
        <mxCell id="amsWNtKq7_Y3dCARKuHN-25" value="回调通知,通知进度信息" style="rounded=0;whiteSpace=wrap;html=1;" vertex="1" parent="1">
          <mxGeometry x="440" y="310" width="120" height="60" as="geometry" />
        </mxCell>
        <mxCell id="amsWNtKq7_Y3dCARKuHN-27" value="操作完成,回调通知" style="rounded=0;whiteSpace=wrap;html=1;" vertex="1" parent="1">
          <mxGeometry x="640" y="310" width="120" height="60" as="geometry" />
        </mxCell>
        <mxCell id="amsWNtKq7_Y3dCARKuHN-37" style="edgeStyle=orthogonalEdgeStyle;rounded=0;orthogonalLoop=1;jettySize=auto;html=1;entryX=0;entryY=0.5;entryDx=0;entryDy=0;" edge="1" parent="1" source="amsWNtKq7_Y3dCARKuHN-34" target="amsWNtKq7_Y3dCARKuHN-36">
          <mxGeometry relative="1" as="geometry" />
        </mxCell>
        <mxCell id="amsWNtKq7_Y3dCARKuHN-34" value="删除文件，记录日志" style="rounded=0;whiteSpace=wrap;html=1;" vertex="1" parent="1">
          <mxGeometry x="240" y="400" width="120" height="60" as="geometry" />
        </mxCell>
        <mxCell id="amsWNtKq7_Y3dCARKuHN-36" value="操作完成,回调通知" style="rounded=0;whiteSpace=wrap;html=1;" vertex="1" parent="1">
          <mxGeometry x="440" y="400" width="120" height="60" as="geometry" />
        </mxCell>
        <mxCell id="amsWNtKq7_Y3dCARKuHN-44" value="" style="edgeStyle=orthogonalEdgeStyle;rounded=0;orthogonalLoop=1;jettySize=auto;html=1;" edge="1" parent="1" source="amsWNtKq7_Y3dCARKuHN-42" target="amsWNtKq7_Y3dCARKuHN-24">
          <mxGeometry relative="1" as="geometry" />
        </mxCell>
        <mxCell id="amsWNtKq7_Y3dCARKuHN-42" value="移动文件，记录日志" style="rounded=0;whiteSpace=wrap;html=1;" vertex="1" parent="1">
          <mxGeometry x="240" y="220" width="120" height="60" as="geometry" />
        </mxCell>
        <mxCell id="amsWNtKq7_Y3dCARKuHN-68" value="" style="edgeStyle=orthogonalEdgeStyle;rounded=0;orthogonalLoop=1;jettySize=auto;html=1;" edge="1" parent="1" source="amsWNtKq7_Y3dCARKuHN-66" target="amsWNtKq7_Y3dCARKuHN-67">
          <mxGeometry relative="1" as="geometry" />
        </mxCell>
        <mxCell id="amsWNtKq7_Y3dCARKuHN-66" value="入素材库" style="rounded=0;whiteSpace=wrap;html=1;" vertex="1" parent="1">
          <mxGeometry x="40" y="510" width="120" height="60" as="geometry" />
        </mxCell>
        <mxCell id="amsWNtKq7_Y3dCARKuHN-70" value="" style="edgeStyle=orthogonalEdgeStyle;rounded=0;orthogonalLoop=1;jettySize=auto;html=1;" edge="1" parent="1" source="amsWNtKq7_Y3dCARKuHN-67" target="amsWNtKq7_Y3dCARKuHN-69">
          <mxGeometry relative="1" as="geometry" />
        </mxCell>
        <mxCell id="amsWNtKq7_Y3dCARKuHN-67" value="文件从云存储文件拷贝到中心大鱼存储" style="rounded=0;whiteSpace=wrap;html=1;" vertex="1" parent="1">
          <mxGeometry x="240" y="510" width="120" height="60" as="geometry" />
        </mxCell>
        <mxCell id="amsWNtKq7_Y3dCARKuHN-72" value="" style="edgeStyle=orthogonalEdgeStyle;rounded=0;orthogonalLoop=1;jettySize=auto;html=1;" edge="1" parent="1" source="amsWNtKq7_Y3dCARKuHN-69" target="amsWNtKq7_Y3dCARKuHN-71">
          <mxGeometry relative="1" as="geometry" />
        </mxCell>
        <mxCell id="amsWNtKq7_Y3dCARKuHN-69" value="读取视频媒体信息" style="rounded=0;whiteSpace=wrap;html=1;" vertex="1" parent="1">
          <mxGeometry x="440" y="510" width="120" height="60" as="geometry" />
        </mxCell>
        <mxCell id="amsWNtKq7_Y3dCARKuHN-71" value="调用云制播入库接口" style="rounded=0;whiteSpace=wrap;html=1;" vertex="1" parent="1">
          <mxGeometry x="640" y="510" width="120" height="60" as="geometry" />
        </mxCell>
        <mxCell id="amsWNtKq7_Y3dCARKuHN-85" style="edgeStyle=orthogonalEdgeStyle;rounded=0;orthogonalLoop=1;jettySize=auto;html=1;entryX=0;entryY=0.5;entryDx=0;entryDy=0;" edge="1" parent="1" source="amsWNtKq7_Y3dCARKuHN-83" target="amsWNtKq7_Y3dCARKuHN-84">
          <mxGeometry relative="1" as="geometry" />
        </mxCell>
        <mxCell id="amsWNtKq7_Y3dCARKuHN-83" value="上传" style="rounded=0;whiteSpace=wrap;html=1;" vertex="1" parent="1">
          <mxGeometry x="40" y="610" width="120" height="60" as="geometry" />
        </mxCell>
        <mxCell id="amsWNtKq7_Y3dCARKuHN-87" style="edgeStyle=orthogonalEdgeStyle;rounded=0;orthogonalLoop=1;jettySize=auto;html=1;exitX=1;exitY=0.5;exitDx=0;exitDy=0;entryX=0;entryY=0.5;entryDx=0;entryDy=0;" edge="1" parent="1" source="amsWNtKq7_Y3dCARKuHN-84" target="amsWNtKq7_Y3dCARKuHN-86">
          <mxGeometry relative="1" as="geometry" />
        </mxCell>
        <mxCell id="amsWNtKq7_Y3dCARKuHN-84" value="上传文件，记录日志" style="rounded=0;whiteSpace=wrap;html=1;" vertex="1" parent="1">
          <mxGeometry x="240" y="610" width="120" height="60" as="geometry" />
        </mxCell>
        <mxCell id="amsWNtKq7_Y3dCARKuHN-86" value="操作完成,回调通知" style="rounded=0;whiteSpace=wrap;html=1;" vertex="1" parent="1">
          <mxGeometry x="440" y="610" width="120" height="60" as="geometry" />
        </mxCell>
        <mxCell id="amsWNtKq7_Y3dCARKuHN-88" style="edgeStyle=orthogonalEdgeStyle;rounded=0;orthogonalLoop=1;jettySize=auto;html=1;entryX=0;entryY=0.5;entryDx=0;entryDy=0;" edge="1" parent="1" source="amsWNtKq7_Y3dCARKuHN-89" target="amsWNtKq7_Y3dCARKuHN-91">
          <mxGeometry relative="1" as="geometry" />
        </mxCell>
        <mxCell id="amsWNtKq7_Y3dCARKuHN-89" value="下载" style="rounded=0;whiteSpace=wrap;html=1;" vertex="1" parent="1">
          <mxGeometry x="40" y="700" width="120" height="60" as="geometry" />
        </mxCell>
        <mxCell id="amsWNtKq7_Y3dCARKuHN-90" style="edgeStyle=orthogonalEdgeStyle;rounded=0;orthogonalLoop=1;jettySize=auto;html=1;exitX=1;exitY=0.5;exitDx=0;exitDy=0;entryX=0;entryY=0.5;entryDx=0;entryDy=0;" edge="1" parent="1" source="amsWNtKq7_Y3dCARKuHN-91" target="amsWNtKq7_Y3dCARKuHN-92">
          <mxGeometry relative="1" as="geometry" />
        </mxCell>
        <mxCell id="amsWNtKq7_Y3dCARKuHN-91" value="下载文件，记录日志" style="rounded=0;whiteSpace=wrap;html=1;" vertex="1" parent="1">
          <mxGeometry x="240" y="700" width="120" height="60" as="geometry" />
        </mxCell>
        <mxCell id="amsWNtKq7_Y3dCARKuHN-92" value="操作完成,回调通知" style="rounded=0;whiteSpace=wrap;html=1;" vertex="1" parent="1">
          <mxGeometry x="440" y="700" width="120" height="60" as="geometry" />
        </mxCell>
      </root>
    </mxGraphModel>
  </diagram>
</mxfile>
